# xmcd
#
# Track frame offsets: 
#        150
#        14975
#        31570
#        42854
#        58318
#        76679
#        98041
#        112168
#        141453
#        158687
#        168302
#        188986
#        204521
#        207313
#        228977
#        242082
#        255499
#        270438
#        294652
#
# Disc length: 4115 seconds
#
# Revision: 0
# Processed by: cddbd v1.5.2PL0 Copyright (c) Steve Scherf et al.
# Submitted via: ExactAudioCopyFreeDBPlugin 1.0
#
DISCID=0c101113
DTITLE=大西ユカリ - HOU ON
DYEAR=2009
DGENRE=
TTITLE0=もう海へなんか行かない
TTITLE1=薄墨ハートブレイク
TTITLE2=なかったことにするあなた
TTITLE3=新世界物語
TTITLE4=MARU－CHO inside out!
TTITLE5=FIRST TIME
TTITLE6=HONMOKU 66
TTITLE7=幸せのあと Re－Mix
TTITLE8=本牧メルヘン
TTITLE9=値上げ
TTITLE10=その気になってるわ
TTITLE11=追憶のSKA
TTITLE12=MO'MARU-CHO
TTITLE13=ポートメリーのスー
TTITLE14=スカジャン哀歌
TTITLE15=チャンス到来
TTITLE16=ざんざ大阪
TTITLE17=BLUES MAN
TTITLE18=ここに幸あり
EXTD=
EXTT0=
EXTT1=
EXTT2=
EXTT3=
EXTT4=
EXTT5=
EXTT6=
EXTT7=
EXTT8=
EXTT9=
EXTT10=
EXTT11=
EXTT12=
EXTT13=
EXTT14=
EXTT15=
EXTT16=
EXTT17=
EXTT18=
PLAYORDER=
